#!OML:ASF F:\VICON\USERDATA\INSTALL\rory3\rory3.ASF
:FULLY-SPECIFIED
:DEGREES
2472
root -2.82416 17.6662 1.78624 2.51545 0.827078 1.19249
lowerback 1.2212 -0.438791 -3.23628
upperback 0.813761 -0.616367 1.59202
thorax 0.202302 -0.325523 3.45805
lowerneck -23.7529 -1.71315 -9.42412
upperneck 23.3285 -0.291372 4.94003
head 11.5823 -0.331811 3.36192
rclavicle 1.22253e-014 8.74653e-015
rhumerus -26.7433 -36.2466 -6.52668
rradius 33.7818
rwrist 28.7435
rhand -26.3055 -6.02556
rfingers 7.12502
rthumb 0.250727 -36.0052
lclavicle 1.22253e-014 8.74653e-015
lhumerus -18.829 26.6757 16.9743
lradius 31.8761
lwrist 0.031991
lhand -18.4157 21.4078
lfingers 7.12502
lthumb 7.86914 51.2413
rfemur -10.9069 1.80655 12.1438
rtibia 31.8741
rfoot -21.2667 -5.20943
rtoes 7.90912
lfemur -7.60976 -2.48242 -17.6373
ltibia 27.0788
lfoot -16.8583 7.17656
ltoes -21.0686
2473
root -2.8312 17.6678 1.78403 2.49976 0.87239 1.07899
lowerback 1.27172 -0.459144 -3.16838
upperback 0.80154 -0.644326 1.63792
thorax 0.16352 -0.33843 3.46794
lowerneck -23.6859 -1.678 -9.42676
upperneck 23.4777 -0.255431 4.96116
head 11.6235 -0.317119 3.37972
rclavicle -1.1778e-014 5.96354e-015
rhumerus -25.9361 -36.1537 -6.44998
rradius 34.018
rwrist 28.6825
rhand -26.5001 -6.14593
rfingers 7.12502
rthumb 0.0627802 -36.1257
lclavicle -1.1778e-014 5.96354e-015
lhumerus -18.1403 26.8041 16.5575
lradius 31.9508
lwrist -0.154679
lhand -18.3593 21.3872
lfingers 7.12502
lthumb 7.9236 51.2187
rfemur -10.8758 1.84969 12.3105
rtibia 31.8548
rfoot -21.2776 -5.2594
rtoes 7.91499
lfemur -7.6146 -2.49156 -17.48
ltibia 27.0652
lfoot -16.8609 7.14834
ltoes -21.1872
2474
root -2.83754 17.6694 1.78039 2.50995 0.943958 1.06818
lowerback 1.32628 -0.514758 -3.2102
upperback 0.759478 -0.720635 1.67365
thorax 0.0971888 -0.374919 3.53005
lowerneck -23.5772 -1.60869 -9.41154
upperneck 23.551 -0.17286 4.95156
head 11.6236 -0.282398 3.38807
rclavicle 5.31749e-015 -2.78299e-015
rhumerus -24.9907 -35.9962 -6.49327
rradius 34.2774
rwrist 28.6224
rhand -26.881 -6.19569
rfingers 7.12502
rthumb -0.305127 -36.1752
lclavicle 5.31749e-015 -2.78299e-015
lhumerus -17.502 26.8364 16.1298
lradius 32.046
lwrist -0.381185
lhand -18.434 21.2553
lfingers 7.12502
lthumb 7.85148 51.0895
rfemur -10.8942 1.77191 12.3499
rtibia 31.8611
rfoot -21.2194 -5.32936
rtoes 7.62714
lfemur -7.64576 -2.55847 -17.4378
ltibia 27.0199
lfoot -16.8292 7.13489
ltoes -21.1932
2475
root -2.84164 17.6697 1.77525 2.52952 1.0238 1.19488
lowerback 1.36517 -0.578151 -3.35744
upperback 0.719239 -0.8082 1.66059
thorax 0.0435149 -0.417471 3.60135
lowerneck -23.497 -1.53943 -9.40231
upperneck 23.6482 -0.09328 4.97011
head 11.6383 -0.246193 3.40849
rclavicle -1.13804e-014 2.22639e-014
rhumerus -24.0529 -36.0171 -6.53748
rradius 34.5203
rwrist 28.7058
rhand -27.3206 -5.89127
rfingers 7.12502
rthumb -0.729766 -35.8698
lclavicle -1.13804e-014 2.22639e-014
lhumerus -16.8111 26.8123 15.7939
lradius 32.2313
lwrist -0.497732
lhand -18.5211 21.2355
lfingers 7.12502
lthumb 7.76738 51.0729
rfemur -10.9237 1.67312 12.2209
rtibia 31.8866
rfoot -21.2289 -5.28062
rtoes 7.57875
lfemur -7.65675 -2.8067 -17.575
ltibia 26.9592
lfoot -16.7482 7.26332
ltoes -20.712
